<?xml version="1.0" encoding="UTF-8"?> <svg xmlns="http://www.w3.org/2000/svg" width="118" height="79" viewBox="0 0 118 79" fill="none"> <path fill-rule="evenodd" clip-rule="evenodd" d="M16.7618 74.6033L16.7475 74.5959C13.152 72.719 10.1814 70.0847 7.853 66.7164L7.84476 66.7045L7.83669 66.6924C5.5904 63.3401 3.97337 59.3019 2.94301 54.6276L2.93996 54.6138L2.93711 54.5999C1.97929 49.9418 1.56166 44.6826 1.66368 38.8383C1.76456 33.0588 2.36521 27.8512 3.48466 23.2308L3.48721 23.2203L3.48988 23.2097C4.68272 18.5097 6.43964 14.4934 8.80502 11.2166L8.81351 11.2049L8.82216 11.1932C11.2682 7.9063 14.3331 5.4065 17.9991 3.72201C21.6919 1.95872 25.9537 1.15652 30.7243 1.23979C40.3114 1.40713 47.6094 4.92337 52.1985 11.9988C56.6531 18.8667 58.6577 28.2179 58.455 39.8296C58.2523 51.4414 55.9226 60.7169 51.231 67.4252C46.3978 74.3361 38.9815 77.5955 29.3944 77.4282C24.6286 77.345 20.4025 76.4297 16.7762 74.6106L16.7618 74.6033ZM37.6927 58.6668L37.7086 58.6414C38.5759 57.2515 39.2374 55.4803 39.6447 53.2746L39.6487 53.2531L39.6531 53.2318C40.1331 50.9166 40.4042 48.3145 40.4548 45.4163L40.6625 33.5182C40.7642 27.6914 39.9282 23.3138 38.3332 20.2237L38.3263 20.2103L38.3196 20.1969C36.9842 17.5115 34.5626 16.009 30.4677 15.9376C26.3804 15.8662 23.8589 17.2795 22.3648 19.9319C20.722 22.9726 19.7674 27.3255 19.6657 33.1517L19.4562 45.1498C19.3545 50.9759 20.1567 55.3593 21.6923 58.4556C23.0929 61.1586 25.5635 62.6591 29.651 62.7304C31.7274 62.7667 33.3442 62.4117 34.5884 61.7727C35.8699 61.0485 36.895 60.0348 37.6776 58.6927L37.6927 58.6668ZM35.5379 63.5333C33.923 64.3719 31.949 64.7708 29.6161 64.7301C24.9501 64.6487 21.7142 62.8586 19.9083 59.3599C18.1691 55.8623 17.3518 51.114 17.4565 45.1149L17.666 33.1167C17.7707 27.1177 18.7532 22.4008 20.6134 18.966C22.5403 15.5325 25.8367 13.8564 30.5026 13.9379C35.1686 14.0193 38.3712 15.8088 40.1104 19.3064C41.9163 22.8051 42.7669 27.554 42.6622 33.5531L42.4545 45.4512C42.4021 48.4508 42.1211 51.1796 41.6115 53.6378C41.1697 56.0304 40.4343 58.0512 39.4053 59.7002C38.4431 61.3503 37.1539 62.628 35.5379 63.5333ZM116.363 77.746L63.1712 76.8176L63.4351 61.6969L86.8737 42.4075L86.8758 42.4057C90.5906 39.3323 93.262 36.6092 94.968 34.2374C96.5983 31.9072 97.4026 29.4762 97.4474 26.9082L97.4649 25.9083C97.5165 22.951 96.7327 21.0078 95.4114 19.7371C94.0401 18.4185 91.9975 17.6117 89.0093 17.5595C85.7054 17.5018 83.48 18.3557 82.0066 19.8277C80.2888 21.5438 79.0033 23.6969 78.1725 26.3384L77.5266 28.3917L62.4311 22.3948L63.0495 20.5913C63.8804 18.1682 65.0302 15.8643 66.4929 13.6817L66.4973 13.6752L66.5017 13.6688C68.0578 11.3855 69.9356 9.39471 72.1294 7.70166L72.142 7.69192L72.1547 7.68239C74.4461 5.97158 77.102 4.65392 80.0971 3.71117C83.1665 2.67804 86.6026 2.21515 90.3761 2.28102C94.2853 2.34925 97.8102 2.96757 100.916 4.18114C104.045 5.31257 106.725 6.92084 108.912 9.031C111.098 11.0717 112.726 13.5145 113.786 16.3364C114.911 19.1513 115.433 22.1873 115.376 25.4208C115.322 28.4982 114.772 31.3638 113.699 33.995C112.72 36.5586 111.355 38.9936 109.616 41.2991L109.607 41.3108L109.598 41.3224C107.878 43.5342 105.857 45.655 103.542 47.6872C101.334 49.6854 98.9294 51.6745 96.3292 53.655L85.3805 62.203L116.625 62.7483L116.363 77.746ZM79.6955 64.104L95.1079 52.0712C97.6758 50.1157 100.044 48.1567 102.212 46.1943C104.446 44.233 106.382 42.1998 108.019 40.0947C109.657 37.9229 110.93 35.6448 111.839 33.2603C112.814 30.877 113.326 28.2522 113.376 25.3859C113.429 22.3864 112.944 19.6108 111.922 17.0593C110.966 14.5089 109.504 12.3164 107.536 10.4817C105.569 8.58045 103.127 7.10429 100.212 6.05325C97.3642 4.93671 94.074 4.34587 90.3412 4.28071C86.7418 4.21788 83.5335 4.66196 80.7165 5.61294C77.9007 6.49726 75.4456 7.72127 73.3513 9.28496C71.3237 10.8498 69.5914 12.6865 68.1543 14.7951C66.7852 16.8382 65.7142 18.9865 64.9414 21.24L76.2646 25.7383C76.4689 25.0889 76.6992 24.463 76.9555 23.8607C77.8506 21.7571 79.0632 19.9411 80.5931 18.4127C82.5611 16.4468 85.3781 15.4958 89.0442 15.5598C92.377 15.618 94.9615 16.5299 96.7976 18.2955C98.6338 20.0612 99.5227 22.6104 99.4646 25.9432L99.4471 26.9431C99.3948 29.9426 98.4454 32.7598 96.5992 35.3947C94.7541 37.9629 91.9372 40.8141 88.1486 43.9485L65.4187 62.6546L65.2058 74.8528L114.398 75.7114L114.59 64.7131L79.6955 64.104ZM17.673 72.8229C20.9779 74.4808 24.8967 75.3494 29.4293 75.4285C38.4946 75.5867 45.2155 72.5369 49.5921 66.279C53.9686 60.0211 56.2564 51.193 56.4553 39.7947C56.6543 28.3965 54.676 19.4939 50.5205 13.0871C46.3651 6.68025 39.7547 3.39772 30.6894 3.23948C26.1567 3.16037 22.2095 3.92493 18.8475 5.53316C15.4868 7.07475 12.6798 9.35944 10.4266 12.3872C8.24012 15.4162 6.57404 19.1877 5.42842 23.7017C4.35062 28.1503 3.76227 33.2074 3.66337 38.8732C3.56331 44.6057 3.97423 49.7137 4.89612 54.1971C5.88467 58.6817 7.41869 62.4757 9.49818 65.5791C11.6443 68.6837 14.3693 71.0983 17.673 72.8229Z" fill="#FF0082"></path> </svg> 