<?xml version="1.0" encoding="UTF-8"?> <svg xmlns="http://www.w3.org/2000/svg" width="145" height="145" viewBox="0 0 145 145" fill="none"> <circle cx="142.5" cy="142.5" r="2.5" fill="#FF0023"></circle> <circle cx="107.5" cy="142.5" r="2.5" fill="#FF0023"></circle> <circle cx="72.5" cy="142.5" r="2.5" fill="#FF0023"></circle> <circle cx="37.5" cy="142.5" r="2.5" fill="#FF0023"></circle> <circle cx="2.5" cy="142.5" r="2.5" fill="#FF0023"></circle> <circle cx="142.5" cy="107.5" r="2.5" fill="#FF0023"></circle> <circle cx="107.5" cy="107.5" r="2.5" fill="#FF0023"></circle> <circle cx="72.5" cy="107.5" r="2.5" fill="#FF0023"></circle> <circle cx="37.5" cy="107.5" r="2.5" fill="#FF0023"></circle> <circle cx="2.5" cy="107.5" r="2.5" fill="#FF0023"></circle> <circle cx="142.5" cy="72.5" r="2.5" fill="#FF0023"></circle> <circle cx="107.5" cy="72.5" r="2.5" fill="#FF0023"></circle> <circle cx="72.5" cy="72.5" r="2.5" fill="#FF0023"></circle> <circle cx="37.5" cy="72.5" r="2.5" fill="#FF0023"></circle> <circle cx="2.5" cy="72.5" r="2.5" fill="#FF0023"></circle> <circle cx="142.5" cy="37.5" r="2.5" fill="#FF0023"></circle> <circle cx="107.5" cy="37.5" r="2.5" fill="#FF0023"></circle> <circle cx="72.5" cy="37.5" r="2.5" fill="#FF0023"></circle> <circle cx="37.5" cy="37.5" r="2.5" fill="#FF0023"></circle> <circle cx="2.5" cy="37.5" r="2.5" fill="#FF0023"></circle> <circle cx="142.5" cy="2.5" r="2.5" fill="#FF0023"></circle> <circle cx="107.5" cy="2.5" r="2.5" fill="#FF0023"></circle> <circle cx="72.5" cy="2.5" r="2.5" fill="#FF0023"></circle> <circle cx="37.5" cy="2.5" r="2.5" fill="#FF0023"></circle> <circle cx="2.5" cy="2.5" r="2.5" fill="#FF0023"></circle> </svg> 