<?xml version="1.0" encoding="UTF-8"?> <svg xmlns="http://www.w3.org/2000/svg" width="119" height="77" viewBox="0 0 119 77" fill="none"> <path fill-rule="evenodd" clip-rule="evenodd" d="M16.32 73.5961L16.3055 73.5889C12.6779 71.775 9.66173 69.1929 7.2749 65.8658L7.26645 65.854L7.25817 65.8421C4.95371 62.5295 3.26646 58.5201 2.15468 53.8646L2.15138 53.8508L2.14829 53.8369C1.10932 49.1962 0.599976 43.9452 0.599976 38.1C0.599976 32.3196 1.10965 27.1023 2.14829 22.4631L2.15066 22.4525L2.15314 22.4419C3.26378 17.7217 4.95033 13.6754 7.25817 10.3579L7.26645 10.346L7.2749 10.3342C9.66319 7.00505 12.684 4.45214 16.32 2.70392C19.9815 0.876455 24.2287 0 29 0C38.5886 0 45.9468 3.38834 50.6587 10.3826C55.2324 17.1717 57.4 26.4865 57.4 38.1C57.4 49.7135 55.2324 59.0283 50.6587 65.8174C45.9468 72.8117 38.5886 76.2 29 76.2C24.2334 76.2 19.992 75.3587 16.3345 73.603L16.32 73.5961ZM36.9696 57.2967L36.985 57.271C37.8279 55.8662 38.4584 54.0837 38.8272 51.8712L38.8308 51.8497L38.8348 51.8282C39.2744 49.5051 39.5 46.8986 39.5 44V32.1C39.5 26.2724 38.5877 21.91 36.939 18.8482L36.9319 18.835L36.925 18.8216C35.543 16.16 33.0955 14.7 29 14.7C24.912 14.7 22.4156 16.1571 20.968 18.8351C19.3785 21.9041 18.5 26.273 18.5 32.1V44.1C18.5 49.9269 19.3785 54.2957 20.9679 57.3647C22.4154 60.0429 24.9119 61.5 29 61.5C31.0767 61.5 32.687 61.1169 33.9199 60.4562C35.1886 59.7098 36.1958 58.6784 36.955 57.3228L36.9696 57.2967ZM34.9 62.2C33.3 63.0667 31.3333 63.5 29 63.5C24.3333 63.5 21.0666 61.7667 19.2 58.3C17.4 54.8333 16.5 50.1 16.5 44.1V32.1C16.5 26.1 17.4 21.3667 19.2 17.9C21.0666 14.4333 24.3333 12.7 29 12.7C33.6666 12.7 36.9 14.4333 38.7 17.9C40.5666 21.3667 41.5 26.1 41.5 32.1V44C41.5 47 41.2666 49.7333 40.8 52.2C40.4 54.6 39.7 56.6333 38.7 58.3C37.7666 59.9667 36.5 61.2667 34.9 62.2ZM66.0609 75V60.3H85.2609V17.1025L71.4009 33.5158L60.1444 24.0439L79.3288 1.2H102.361V60.3H118.161V75H66.0609ZM100.361 62.3V3.2H80.2609L62.9609 23.8L71.1605 30.6996L86.3609 12.7H87.2609V62.3H68.0609V73H116.161V62.3H100.361ZM17.2 71.8C20.5333 73.4 24.4666 74.2 29 74.2C38.0666 74.2 44.7333 71.0333 49 64.7C53.2666 58.3667 55.4 49.5 55.4 38.1C55.4 26.7 53.2666 17.8333 49 11.5C44.7333 5.16667 38.0666 2 29 2C24.4666 2 20.5333 2.83333 17.2 4.5C13.8666 6.1 11.1 8.43334 8.89998 11.5C6.76664 14.5667 5.16664 18.3667 4.09998 22.9C3.09998 27.3667 2.59998 32.4333 2.59998 38.1C2.59998 43.8333 3.09998 48.9333 4.09998 53.4C5.16664 57.8667 6.76664 61.6333 8.89998 64.7C11.1 67.7667 13.8666 70.1333 17.2 71.8Z" fill="#FF0082"></path> </svg> 