<?xml version="1.0" encoding="UTF-8"?> <svg xmlns="http://www.w3.org/2000/svg" width="299" height="6" viewBox="0 0 299 6" fill="none"> <path d="M1 3C5.95 0.333333 10.9 0.333333 15.85 3C20.8 5.66667 25.75 5.66667 30.7 3C35.65 0.333333 40.6 0.333333 45.55 3C50.5 5.66667 55.45 5.66667 60.4 3C65.35 0.333333 70.3 0.333333 75.25 3C80.2 5.66667 85.15 5.66667 90.1 3C95.05 0.333333 100 0.333333 104.95 3C109.9 5.66667 114.85 5.66667 119.8 3C124.75 0.333333 129.7 0.333333 134.65 3C139.6 5.66667 144.55 5.66667 149.5 3C154.45 0.333333 159.4 0.333333 164.35 3C169.3 5.66667 174.25 5.66667 179.2 3C184.15 0.333333 189.1 0.333333 194.05 3C199 5.66667 203.95 5.66667 208.9 3C213.85 0.333333 218.8 0.333333 223.75 3C228.7 5.66667 233.65 5.66667 238.6 3C243.55 0.333333 248.5 0.333333 253.45 3C258.4 5.66667 263.35 5.66667 268.3 3C273.25 0.333333 278.2 0.333333 283.15 3C288.1 5.66667 293.05 5.66667 298 3" stroke="#FCFCFC" stroke-width="2"></path> </svg> 