<?xml version="1.0" encoding="UTF-8"?> <svg xmlns="http://www.w3.org/2000/svg" width="114" height="75" viewBox="0 0 114 75" fill="none"> <path d="M16.1995 70.8002L15.7523 71.6947L15.7595 71.6983L15.7668 71.7018L16.1995 70.8002ZM7.89951 63.7002L7.07861 64.2713L7.08275 64.2773L7.08697 64.2832L7.89951 63.7002ZM3.09951 52.4002L2.12367 52.6187L2.12522 52.6256L2.12686 52.6325L3.09951 52.4002ZM3.09951 21.9002L2.12604 21.6712L2.12367 21.6818L3.09951 21.9002ZM7.89951 10.5002L7.08697 9.91734L7.08275 9.92323L7.07861 9.92918L7.89951 10.5002ZM16.1995 3.50024L16.6322 4.40176L16.6395 4.39827L16.6467 4.39467L16.1995 3.50024ZM47.9995 10.5002L47.1702 11.059L47.1702 11.059L47.9995 10.5002ZM47.9995 63.7002L47.1702 63.1415L47.1702 63.1415L47.9995 63.7002ZM33.8995 61.2002L34.3758 62.0795L34.3897 62.072L34.4034 62.064L33.8995 61.2002ZM37.6995 57.3002L36.842 56.7857L36.8343 56.7986L36.827 56.8116L37.6995 57.3002ZM39.7995 51.2002L38.8169 51.0144L38.8149 51.0251L38.8131 51.0358L39.7995 51.2002ZM37.6995 16.9002L36.812 17.3611L36.8155 17.3677L36.819 17.3743L37.6995 16.9002ZM18.1995 16.9002L17.319 16.4261L17.3155 16.4328L17.312 16.4394L18.1995 16.9002ZM18.1995 57.3002L17.312 57.7611L17.3155 57.7677L17.319 57.7743L18.1995 57.3002ZM27.9995 72.2002C23.5828 72.2002 19.8035 71.4209 16.6322 69.8987L15.7668 71.7018C19.2622 73.3796 23.3496 74.2002 27.9995 74.2002V72.2002ZM16.6467 69.9058C13.4606 68.3127 10.8186 66.0538 8.71205 63.1173L7.08697 64.2832C9.38039 67.48 12.2718 69.9544 15.7523 71.6947L16.6467 69.9058ZM8.72042 63.1292C6.67264 60.1855 5.11627 56.5402 4.07216 52.168L2.12686 52.6325C3.21609 57.1936 4.85971 61.0816 7.07861 64.2713L8.72042 63.1292ZM4.07536 52.1818C3.09484 47.8021 2.59951 42.7776 2.59951 37.1002H0.599512C0.599512 42.8895 1.10418 48.065 2.12367 52.6187L4.07536 52.1818ZM2.59951 37.1002C2.59951 31.4905 3.09467 26.4991 4.07536 22.1187L2.12367 21.6818C1.10435 26.2347 0.599512 31.3767 0.599512 37.1002H2.59951ZM4.07293 22.1293C5.11761 17.6894 6.67433 14.0126 8.72042 11.0713L7.07861 9.92918C4.85802 13.1213 3.21475 17.0444 2.12609 21.6712L4.07293 22.1293ZM8.71205 11.0832C10.8163 8.14993 13.4535 5.92756 16.6322 4.40176L15.7668 2.59872C12.2789 4.27292 9.38271 6.71722 7.08697 9.91734L8.71205 11.0832ZM16.6467 4.39467C19.8143 2.81086 23.5883 2.00024 27.9995 2.00024V0.000240326C23.344 0.000240326 19.2513 0.856288 15.7523 2.60581L16.6467 4.39467ZM27.9995 2.00024C36.8052 2.00024 43.1261 5.05607 47.1702 11.059L48.8289 9.94152C44.3396 3.27774 37.3271 0.000240326 27.9995 0.000240326V2.00024ZM47.1702 11.059C51.2833 17.1644 53.3995 25.807 53.3995 37.1002H55.3995C55.3995 25.5935 53.2491 16.5028 48.8289 9.94152L47.1702 11.059ZM53.3995 37.1002C53.3995 48.3935 51.2833 57.0361 47.1702 63.1415L48.8289 64.259C53.2491 57.6977 55.3995 48.607 55.3995 37.1002H53.3995ZM47.1702 63.1415C43.1261 69.1444 36.8052 72.2002 27.9995 72.2002V74.2002C37.3271 74.2002 44.3396 70.9227 48.8289 64.259L47.1702 63.1415ZM27.9995 63.5002C30.4534 63.5002 32.594 63.0447 34.3758 62.0795L33.4232 60.321C32.005 61.0891 30.2123 61.5002 27.9995 61.5002V63.5002ZM34.4034 62.064C36.1625 61.0379 37.5543 59.6061 38.572 57.7888L36.827 56.8116C35.978 58.3277 34.8365 59.496 33.3956 60.3365L34.4034 62.064ZM38.557 57.8147C39.6355 56.0172 40.3703 53.8584 40.7859 51.3646L38.8131 51.0358C38.4287 53.3421 37.7635 55.25 36.842 56.7857L38.557 57.8147ZM40.7821 51.3861C41.2623 48.8477 41.4995 46.051 41.4995 43.0002H39.4995C39.4995 45.9495 39.27 48.6194 38.8169 51.0144L40.7821 51.3861ZM41.4995 43.0002V31.1002H39.4995V43.0002H41.4995ZM41.4995 31.1002C41.4995 25.0141 40.5556 20.0952 38.58 16.4261L36.819 17.3743C38.5767 20.6386 39.4995 25.1864 39.4995 31.1002H41.4995ZM38.587 16.4394C36.578 12.5703 32.9518 10.7002 27.9995 10.7002V12.7002C32.3806 12.7002 35.221 14.2969 36.812 17.3611L38.587 16.4394ZM27.9995 10.7002C23.0468 10.7002 19.3958 12.5693 17.319 16.4261L19.08 17.3743C20.7366 14.2978 23.6189 12.7002 27.9995 12.7002V10.7002ZM17.312 16.4394C15.4089 20.1046 14.4995 25.018 14.4995 31.1002H16.4995C16.4995 25.1824 17.3901 20.6292 19.087 17.3611L17.312 16.4394ZM14.4995 31.1002V43.1002H16.4995V31.1002H14.4995ZM14.4995 43.1002C14.4995 49.1824 15.4089 54.0959 17.312 57.7611L19.087 56.8394C17.3901 53.5713 16.4995 49.018 16.4995 43.1002H14.4995ZM17.319 57.7743C19.3958 61.6311 23.0468 63.5002 27.9995 63.5002V61.5002C23.6189 61.5002 20.7366 59.9027 19.08 56.8261L17.319 57.7743ZM94.3605 27.9002L93.7203 27.132L93.7138 27.1374L93.7075 27.1428L94.3605 27.9002ZM94.4605 14.2002L93.8097 14.9595L93.8162 14.9651L93.8229 14.9706L94.4605 14.2002ZM72.0604 20.2002L71.3939 20.9457L72.2633 21.7231L72.8989 20.7452L72.0604 20.2002ZM63.5604 12.6002L62.7604 12.0002L62.21 12.7342L62.8939 13.3457L63.5604 12.6002ZM67.5604 8.10024L68.2509 8.82359L68.2517 8.82288L67.5604 8.10024ZM72.6604 4.40024L73.1327 5.28178L73.1435 5.27582L72.6604 4.40024ZM96.7605 2.30024L96.4771 3.25926L96.4899 3.26304L96.5028 3.26648L96.7605 2.30024ZM104.36 5.90024L103.748 6.69097L103.754 6.69565L103.76 6.70024L104.36 5.90024ZM109.26 11.7002L108.366 12.1475L108.374 12.1634L108.383 12.1791L109.26 11.7002ZM109.96 25.2002L110.887 25.5775L110.887 25.5775L109.96 25.2002ZM106.96 29.9002L106.235 29.2115L106.226 29.2213L106.217 29.2313L106.96 29.9002ZM102.66 33.2002L102.199 32.313L102.192 32.3169L102.184 32.321L102.66 33.2002ZM97.4605 35.1002L97.2509 34.1224L96.4605 34.2918V35.1002H97.4605ZM97.4605 35.6002H96.4605V36.4253L97.2704 36.582L97.4605 35.6002ZM103.26 37.6002L102.8 38.488L102.813 38.4948L102.827 38.5012L103.26 37.6002ZM107.96 41.0002L107.236 41.6899L107.236 41.6899L107.96 41.0002ZM111.16 46.1002L110.232 46.4717L110.236 46.4826L111.16 46.1002ZM110.46 61.1002L109.566 60.653L109.566 60.653L110.46 61.1002ZM105.06 67.6002L104.45 66.8084L104.439 66.8171L105.06 67.6002ZM96.7605 71.8002L97.0405 72.7603L97.0532 72.7564L96.7605 71.8002ZM77.0605 72.1002L77.3319 71.1378L77.3204 71.1345L77.3088 71.1316L77.0605 72.1002ZM70.1605 69.3002L69.646 70.1577L69.646 70.1577L70.1605 69.3002ZM64.9604 65.2002L64.2233 65.876L64.2305 65.8838L64.2378 65.8915L64.9604 65.2002ZM61.0604 60.3002L60.4488 59.5091L59.7045 60.0846L60.2335 60.8626L61.0604 60.3002ZM70.7604 52.8002L71.6197 52.2888L71.0421 51.3184L70.1488 52.0091L70.7604 52.8002ZM76.6604 59.7002L76.0385 60.4834L76.0496 60.492L76.6604 59.7002ZM95.3605 59.7002L96.0053 60.4645L96.0074 60.4628L95.3605 59.7002ZM95.1605 43.9002L94.5641 44.703L94.5716 44.7086L94.5792 44.714L95.1605 43.9002ZM78.2605 41.3002H77.2605V42.3002H78.2605V41.3002ZM78.2605 30.4002V29.4002H77.2605V30.4002H78.2605ZM85.1605 31.4002C89.4561 31.4002 92.8131 30.5545 95.0134 28.6577L93.7075 27.1428C92.0411 28.5794 89.2648 29.4002 85.1605 29.4002V31.4002ZM95.0006 28.6685C97.2214 26.8179 98.3605 24.4397 98.3605 21.6002H96.3605C96.3605 23.8275 95.4996 25.6493 93.7203 27.132L95.0006 28.6685ZM98.3605 21.6002V20.9002H96.3605V21.6002H98.3605ZM98.3605 20.9002C98.3605 17.7832 97.2952 15.2482 95.098 13.4298L93.8229 14.9706C95.4924 16.3523 96.3605 18.284 96.3605 20.9002H98.3605ZM95.1112 13.441C93.0077 11.6379 90.1472 10.8002 86.6604 10.8002V12.8002C89.8404 12.8002 92.1799 13.5626 93.8097 14.9595L95.1112 13.441ZM86.6604 10.8002C83.3024 10.8002 80.3167 11.5717 77.739 13.147L78.7819 14.8535C81.0042 13.4955 83.6185 12.8002 86.6604 12.8002V10.8002ZM77.739 13.147C75.1959 14.7011 73.026 16.8799 71.222 19.6553L72.8989 20.7452C74.5616 18.1873 76.525 16.2328 78.7819 14.8535L77.739 13.147ZM72.727 19.4548L64.227 11.8548L62.8939 13.3457L71.3939 20.9457L72.727 19.4548ZM64.3604 13.2002C65.5269 11.6449 66.8236 10.1861 68.2509 8.82359L66.87 7.37688C65.364 8.81439 63.994 10.3556 62.7604 12.0002L64.3604 13.2002ZM68.2517 8.82288C69.7197 7.41871 71.346 6.23885 73.1327 5.28172L72.1882 3.51876C70.2415 4.56163 68.4679 5.84844 66.8692 7.3776L68.2517 8.82288ZM73.1435 5.27582C74.9967 4.25337 77.0504 3.44964 79.3095 2.86873L78.8114 0.931748C76.4038 1.55084 74.1909 2.41377 72.1774 3.52466L73.1435 5.27582ZM79.3095 2.86873C81.5445 2.29403 84.1249 2.00024 87.0605 2.00024V0.000240326C83.996 0.000240326 81.2431 0.306455 78.8114 0.931748L79.3095 2.86873ZM87.0605 2.00024C90.5124 2.00024 93.6487 2.4236 96.4771 3.25926L97.0438 1.34122C94.0055 0.443544 90.6752 0.000240326 87.0605 0.000240326V2.00024ZM96.5028 3.26648C99.3979 4.03849 101.805 5.1863 103.748 6.69097L104.973 5.10952C102.783 3.41418 100.123 2.16198 97.0181 1.33401L96.5028 3.26648ZM103.76 6.70024C105.776 8.2121 107.306 10.0269 108.366 12.1475L110.155 11.253C108.948 8.84023 107.211 6.78838 104.96 5.10024L103.76 6.70024ZM108.383 12.1791C109.493 14.2156 110.06 16.5476 110.06 19.2002H112.06C112.06 16.2529 111.428 13.5849 110.138 11.2214L108.383 12.1791ZM110.06 19.2002C110.06 21.2879 109.713 23.1575 109.034 24.8229L110.887 25.5775C111.675 23.643 112.06 21.5126 112.06 19.2002H110.06ZM109.034 24.8229C108.345 26.5141 107.411 27.9736 106.235 29.2115L107.685 30.589C109.043 29.1602 110.109 27.4863 110.887 25.5775L109.034 24.8229ZM106.217 29.2313C105.101 30.4714 103.765 31.499 102.199 32.313L103.122 34.0875C104.89 33.1682 106.42 31.9958 107.704 30.5692L106.217 29.2313ZM102.184 32.321C100.672 33.1401 99.029 33.7414 97.2509 34.1224L97.67 36.078C99.6252 35.6591 101.449 34.9938 103.137 34.0795L102.184 32.321ZM96.4605 35.1002V35.6002H98.4605V35.1002H96.4605ZM97.2704 36.582C99.2466 36.9645 101.088 37.6005 102.8 38.488L103.721 36.7125C101.832 35.7334 99.8077 35.036 97.6505 34.6185L97.2704 36.582ZM102.827 38.5012C104.522 39.3173 105.989 40.3802 107.236 41.6899L108.685 40.3106C107.265 38.8203 105.599 37.6165 103.694 36.6992L102.827 38.5012ZM107.236 41.6899C108.472 42.9878 109.474 44.5763 110.232 46.4716L112.089 45.7289C111.247 43.6242 110.115 41.8127 108.685 40.3106L107.236 41.6899ZM110.236 46.4826C110.978 48.275 111.36 50.3417 111.36 52.7002H113.36C113.36 50.1255 112.943 47.7921 112.084 45.7179L110.236 46.4826ZM111.36 52.7002C111.36 55.6248 110.758 58.2698 109.566 60.653L111.355 61.5475C112.697 58.864 113.36 55.9091 113.36 52.7002H111.36ZM109.566 60.653C108.369 63.0461 106.669 65.0967 104.45 66.8085L105.671 68.392C108.119 66.5038 110.018 64.221 111.355 61.5475L109.566 60.653ZM104.439 66.8171C102.286 68.5267 99.636 69.8742 96.4677 70.844L97.0532 72.7564C100.418 71.7263 103.302 70.2738 105.682 68.3834L104.439 66.8171ZM96.4805 70.8402C93.3874 71.7424 89.884 72.2002 85.9604 72.2002V74.2002C90.0369 74.2002 93.7335 73.7248 97.0405 72.7602L96.4805 70.8402ZM85.9604 72.2002C82.6984 72.2002 79.8258 71.8412 77.3319 71.1378L76.789 73.0627C79.4951 73.826 82.5558 74.2002 85.9604 74.2002V72.2002ZM77.3088 71.1316C74.7886 70.4854 72.5807 69.5862 70.6749 68.4428L69.646 70.1577C71.7402 71.4143 74.1323 72.3818 76.8121 73.0689L77.3088 71.1316ZM70.6749 68.4428C68.7439 67.2841 67.0823 65.9719 65.6831 64.509L64.2378 65.8915C65.7719 67.4953 67.577 68.9163 69.646 70.1577L70.6749 68.4428ZM65.6976 64.5245C64.2611 62.9574 62.9916 61.3618 61.8874 59.7379L60.2335 60.8626C61.396 62.5721 62.7265 64.2431 64.2233 65.876L65.6976 64.5245ZM61.6721 61.0913L71.3721 53.5913L70.1488 52.0091L60.4488 59.5091L61.6721 61.0913ZM69.9012 53.3117C71.6221 56.2029 73.6658 58.5991 76.0386 60.4834L77.2823 58.9171C75.1218 57.2014 73.2321 54.9976 71.6197 52.2888L69.9012 53.3117ZM76.0496 60.492C78.6112 62.4681 82.0176 63.4002 86.1604 63.4002V61.4002C82.3033 61.4002 79.3764 60.5324 77.2713 58.9085L76.0496 60.492ZM86.1604 63.4002C90.2961 63.4002 93.6274 62.4709 96.0053 60.4645L94.7156 58.936C92.8268 60.5296 90.0248 61.4002 86.1604 61.4002V63.4002ZM96.0074 60.4628C98.4625 58.3797 99.6604 55.5171 99.6604 52.0002H97.6604C97.6604 55.0167 96.6584 57.2875 94.7135 58.9377L96.0074 60.4628ZM99.6604 52.0002V51.2002H97.6604V52.0002H99.6604ZM99.6604 51.2002C99.6604 47.7207 98.3713 44.9648 95.7417 43.0865L94.5792 44.714C96.6163 46.169 97.6604 48.2798 97.6604 51.2002H99.6604ZM95.7568 43.0975C93.1871 41.1886 89.6457 40.3002 85.2604 40.3002V42.3002C89.4085 42.3002 92.4671 43.1452 94.5641 44.703L95.7568 43.0975ZM85.2604 40.3002H78.2605V42.3002H85.2604V40.3002ZM79.2605 41.3002V30.4002H77.2605V41.3002H79.2605ZM78.2605 31.4002H85.1605V29.4002H78.2605V31.4002Z" fill="#FF0082"></path> </svg> 